<?xml version="1.0" encoding="UTF-8" standalone="no"?><svg xmlns:svg="http://www.w3.org/2000/svg" xmlns="http://www.w3.org/2000/svg" xmlns:xlink="http://www.w3.org/1999/xlink" version="1.0" width="64px" height="64px" viewBox="0 0 128 128" xml:space="preserve"><g><path d="M56.9-.1h15.17V37H56.9V-.1z" fill="#2198f3" fill-opacity="1"/><path d="M56.9-.1h15.17V37H56.9V-.1z" fill="#e8f4fe" fill-opacity="0.1" transform="rotate(30 64 64)"/><path d="M56.9-.1h15.17V37H56.9V-.1z" fill="#e8f4fe" fill-opacity="0.1" transform="rotate(60 64 64)"/><path d="M56.9-.1h15.17V37H56.9V-.1z" fill="#e8f4fe" fill-opacity="0.1" transform="rotate(90 64 64)"/><path d="M56.9-.1h15.17V37H56.9V-.1z" fill="#d4ebfd" fill-opacity="0.19" transform="rotate(120 64 64)"/><path d="M56.9-.1h15.17V37H56.9V-.1z" fill="#c0e2fc" fill-opacity="0.28" transform="rotate(150 64 64)"/><path d="M56.9-.1h15.17V37H56.9V-.1z" fill="#abd8fa" fill-opacity="0.38" transform="rotate(180 64 64)"/><path d="M56.9-.1h15.17V37H56.9V-.1z" fill="#98cff9" fill-opacity="0.46" transform="rotate(210 64 64)"/><path d="M56.9-.1h15.17V37H56.9V-.1z" fill="#84c6f8" fill-opacity="0.55" transform="rotate(240 64 64)"/><path d="M56.9-.1h15.17V37H56.9V-.1z" fill="#71bdf7" fill-opacity="0.64" transform="rotate(270 64 64)"/><path d="M56.9-.1h15.17V37H56.9V-.1z" fill="#5cb3f6" fill-opacity="0.73" transform="rotate(300 64 64)"/><path d="M56.9-.1h15.17V37H56.9V-.1z" fill="#49abf5" fill-opacity="0.82" transform="rotate(330 64 64)"/><animateTransform attributeName="transform" type="rotate" values="0 64 64;30 64 64;60 64 64;90 64 64;120 64 64;150 64 64;180 64 64;210 64 64;240 64 64;270 64 64;300 64 64;330 64 64" calcMode="discrete" dur="1080ms" repeatCount="indefinite"></animateTransform></g></svg>